<svg xmlns="http://www.w3.org/2000/svg" viewBox="0 0 64 64" fill="none">
  <defs>
    <linearGradient id="shield-gradient" x1="0%" y1="0%" x2="100%" y2="100%">
      <stop offset="0%" style="stop-color:#0c8de7"/>
      <stop offset="100%" style="stop-color:#14d459"/>
    </linearGradient>
    <linearGradient id="check-gradient" x1="0%" y1="0%" x2="100%" y2="100%">
      <stop offset="0%" style="stop-color:#14d459"/>
      <stop offset="100%" style="stop-color:#09b046"/>
    </linearGradient>
  </defs>
  
  <!-- Shield outline -->
  <path 
    d="M32 4L8 14v18c0 14.36 10.28 27.77 24 32 13.72-4.23 24-17.64 24-32V14L32 4z" 
    fill="url(#shield-gradient)" 
    opacity="0.15"
  />
  <path 
    d="M32 4L8 14v18c0 14.36 10.28 27.77 24 32 13.72-4.23 24-17.64 24-32V14L32 4z" 
    stroke="url(#shield-gradient)" 
    stroke-width="2" 
    fill="none"
  />
  
  <!-- Inner shield -->
  <path 
    d="M32 10L14 18v14c0 11.18 7.98 21.6 18 24.8 10.02-3.2 18-13.62 18-24.8V18L32 10z" 
    fill="url(#shield-gradient)" 
    opacity="0.3"
  />
  
  <!-- Checkmark -->
  <path 
    d="M26 32l6 6 12-12" 
    stroke="url(#check-gradient)" 
    stroke-width="3" 
    stroke-linecap="round" 
    stroke-linejoin="round"
    fill="none"
  />
  
  <!-- Hash chain dots -->
  <circle cx="20" cy="48" r="2" fill="#0c8de7" opacity="0.6"/>
  <circle cx="28" cy="48" r="2" fill="#0c8de7" opacity="0.7"/>
  <circle cx="36" cy="48" r="2" fill="#0c8de7" opacity="0.8"/>
  <circle cx="44" cy="48" r="2" fill="#14d459" opacity="0.9"/>
</svg>
