<?xml version="1.0" encoding="UTF-8"?>
<svg width="1920" height="3100" viewBox="0 0 1920 3100" xmlns="http://www.w3.org/2000/svg" xmlns:xlink="http://www.w3.org/1999/xlink">
  
  <!-- Definitions -->
  <defs>
    <!-- Gradients -->
    <linearGradient id="bgGradient" x1="0%" y1="0%" x2="100%" y2="100%">
      <stop offset="0%" style="stop-color:#f8fafc;stop-opacity:1" />
      <stop offset="100%" style="stop-color:#e2e8f0;stop-opacity:1" />
    </linearGradient>
    
    <linearGradient id="purpleGradient" x1="0%" y1="0%" x2="100%" y2="100%">
      <stop offset="0%" style="stop-color:#faf5ff;stop-opacity:1" />
      <stop offset="100%" style="stop-color:#f3e8ff;stop-opacity:1" />
    </linearGradient>
    
    <linearGradient id="blueGradient" x1="0%" y1="0%" x2="100%" y2="100%">
      <stop offset="0%" style="stop-color:#eff6ff;stop-opacity:1" />
      <stop offset="100%" style="stop-color:#e0e7ff;stop-opacity:1" />
    </linearGradient>
    
    <linearGradient id="greenGradient" x1="0%" y1="0%" x2="100%" y2="100%">
      <stop offset="0%" style="stop-color:#f0fdf4;stop-opacity:1" />
      <stop offset="100%" style="stop-color:#d1fae5;stop-opacity:1" />
    </linearGradient>
    
    <linearGradient id="amberGradient" x1="0%" y1="0%" x2="100%" y2="100%">
      <stop offset="0%" style="stop-color:#fffbeb;stop-opacity:1" />
      <stop offset="100%" style="stop-color:#fed7aa;stop-opacity:1" />
    </linearGradient>
    
    <linearGradient id="tealGradient" x1="0%" y1="0%" x2="100%" y2="100%">
      <stop offset="0%" style="stop-color:#f0fdfa;stop-opacity:1" />
      <stop offset="100%" style="stop-color:#ccfbf1;stop-opacity:1" />
    </linearGradient>
    
    <linearGradient id="roseGradient" x1="0%" y1="0%" x2="100%" y2="100%">
      <stop offset="0%" style="stop-color:#fff1f2;stop-opacity:1" />
      <stop offset="100%" style="stop-color:#fce7f3;stop-opacity:1" />
    </linearGradient>
    
    <!-- Arrow marker -->
    <marker id="arrowDown" markerWidth="10" markerHeight="10" refX="5" refY="5" orient="auto">
      <path d="M 2 2 L 5 8 L 8 2" stroke="#94a3b8" stroke-width="2" fill="none" stroke-linecap="round" stroke-linejoin="round"/>
    </marker>
    
    <!-- Fonts -->
    <style>
      @import url('https://fonts.googleapis.com/css2?family=Inter:wght@400;600;700;800&amp;display=swap');
      text { font-family: 'Inter', -apple-system, sans-serif; }
      .title { font-size: 64px; font-weight: 800; fill: #0f172a; }
      .subtitle { font-size: 32px; font-weight: 400; fill: #475569; }
      .tagline { font-size: 20px; font-weight: 400; fill: #64748b; font-style: italic; }
      .badge { font-size: 18px; font-weight: 600; fill: #1e40af; }
      .layer-title { font-size: 32px; font-weight: 700; fill: #1e293b; }
      .layer-subtitle { font-size: 16px; font-weight: 400; fill: #64748b; }
      .box-title { font-size: 18px; font-weight: 700; }
      .box-text { font-size: 14px; font-weight: 400; fill: #475569; }
      .small-text { font-size: 13px; font-weight: 400; fill: #64748b; }
      .footer-text { font-size: 16px; font-weight: 400; fill: #64748b; }
    </style>
  </defs>
  
  <!-- Background -->
  <rect width="1920" height="3100" fill="url(#bgGradient)"/>
  
  <!-- Main Container -->
  <g transform="translate(160, 80)">
    
    <!-- Header -->
    <g id="header">
      <text x="800" y="60" text-anchor="middle" class="title">VeritasChain Protocol (VCP)</text>
      <text x="800" y="110" text-anchor="middle" class="subtitle">High-Level System Architecture</text>
      <text x="800" y="145" text-anchor="middle" class="tagline">"Encoding Trust in the Algorithmic Age"</text>
      
      <!-- Badge -->
      <rect x="650" y="165" width="300" height="40" rx="20" fill="#dbeafe"/>
      <text x="800" y="192" text-anchor="middle" class="badge">VCP v1.0 | VSO-ARCH-001</text>
    </g>
    
    <!-- Main Card -->
    <rect x="0" y="240" width="1600" height="2500" rx="24" fill="white" stroke="#e2e8f0" stroke-width="2" filter="url(#shadow)"/>
    
    <!-- Layer 1: Event Sources -->
    <g transform="translate(60, 300)">
      <!-- Layer Header -->
      <rect x="0" y="0" width="60" height="60" rx="12" fill="#f3e8ff"/>
      <text x="30" y="38" text-anchor="middle" font-size="32">⚡</text>
      
      <text x="80" y="40" class="layer-title">① Event Sources</text>
      <text x="1390" y="40" text-anchor="end" class="layer-subtitle">Data Generation</text>
      
      <!-- Source Boxes -->
      <g transform="translate(0, 80)">
        <!-- Box 1: Trading Algorithms -->
        <rect x="0" y="0" width="365" height="180" rx="12" fill="url(#purpleGradient)" stroke="#d8b4fe" stroke-width="3"/>
        <text x="40" y="35" font-size="24">⚡</text>
        <text x="75" y="38" class="box-title" fill="#581c87">Trading Algorithms</text>
        <text x="20" y="70" class="box-text">• EA / Expert Advisors</text>
        <text x="20" y="100" class="box-text">• AI-Driven Strategies</text>
        <text x="20" y="130" class="box-text">• Rule-Based Systems</text>
        
        <!-- Box 2: Signal Generation -->
        <rect x="385" y="0" width="365" height="180" rx="12" fill="url(#purpleGradient)" stroke="#d8b4fe" stroke-width="3"/>
        <text x="425" y="35" font-size="24">📊</text>
        <text x="460" y="38" class="box-title" fill="#581c87">Signal Generation</text>
        <text x="405" y="70" class="box-text">• Technical Indicators</text>
        <text x="405" y="100" class="box-text">• Risk Checks</text>
        <text x="405" y="130" class="box-text">• Market Data</text>
        
        <!-- Box 3: MT4/MT5 -->
        <rect x="770" y="0" width="365" height="180" rx="12" fill="url(#purpleGradient)" stroke="#d8b4fe" stroke-width="3"/>
        <text x="810" y="35" font-size="24">🖥</text>
        <text x="845" y="38" class="box-title" fill="#581c87">MT4 / MT5</text>
        <text x="790" y="70" class="box-text">• Retail Trading</text>
        <text x="790" y="100" class="box-text">• Prop Firms</text>
        <text x="790" y="130" class="box-text">• FX/CFD Brokers</text>
        
        <!-- Box 4: Other Platforms -->
        <rect x="1155" y="0" width="365" height="180" rx="12" fill="url(#purpleGradient)" stroke="#d8b4fe" stroke-width="3"/>
        <text x="1195" y="35" font-size="24">🌐</text>
        <text x="1230" y="38" class="box-title" fill="#581c87">Other Platforms</text>
        <text x="1175" y="70" class="box-text">• cTrader</text>
        <text x="1175" y="100" class="box-text">• Proprietary Systems</text>
        <text x="1175" y="130" class="box-text">• Exchange APIs</text>
      </g>
    </g>
    
    <!-- Arrow 1 -->
    <line x1="800" y1="580" x2="800" y2="640" stroke="#94a3b8" stroke-width="4" marker-end="url(#arrowDown)"/>
    
    <!-- Layer 2: Logging Layer -->
    <g transform="translate(60, 660)">
      <!-- Layer Header -->
      <rect x="0" y="0" width="60" height="60" rx="12" fill="#dbeafe"/>
      <text x="30" y="38" text-anchor="middle" font-size="32">💾</text>
      
      <text x="80" y="40" class="layer-title">② Logging Layer</text>
      <text x="1390" y="40" text-anchor="end" class="layer-subtitle">Client-Side Processing</text>
      
      <!-- Main Box -->
      <rect x="0" y="80" width="1480" height="360" rx="16" fill="url(#blueGradient)" stroke="#93c5fd" stroke-width="3"/>
      
      <!-- Component Boxes Inside -->
      <g transform="translate(20, 100)">
        <!-- Box 1 -->
        <rect x="0" y="0" width="460" height="140" rx="12" fill="white" stroke="#93c5fd" stroke-width="2"/>
        <text x="20" y="30" class="box-title" fill="#1e3a8a">vcp-mql-bridge</text>
        <text x="20" y="60" class="small-text">• MQL4/5 Integration</text>
        <text x="20" y="85" class="small-text">• Local Event Builder</text>
        <text x="20" y="110" class="small-text">• Offline Cache</text>
        
        <!-- Box 2 -->
        <rect x="490" y="0" width="460" height="140" rx="12" fill="white" stroke="#93c5fd" stroke-width="2"/>
        <text x="510" y="30" class="box-title" fill="#1e3a8a">SDK Libraries</text>
        <text x="510" y="60" class="small-text">• TypeScript SDK</text>
        <text x="510" y="85" class="small-text">• Python SDK</text>
        <text x="510" y="110" class="small-text">• Event Validation</text>
        
        <!-- Box 3 -->
        <rect x="980" y="0" width="460" height="140" rx="12" fill="white" stroke="#93c5fd" stroke-width="2"/>
        <text x="1000" y="30" class="box-title" fill="#1e3a8a">Hash Chain</text>
        <text x="1000" y="60" class="small-text">• Local Chain Construction</text>
        <text x="1000" y="85" class="small-text">• SHA-256 Hashing</text>
        <text x="1000" y="110" class="small-text">• Prev Hash Linkage</text>
      </g>
      
      <!-- Cryptographic Operations Box -->
      <rect x="20" y="260" width="1440" height="100" rx="12" fill="white" stroke="#93c5fd" stroke-width="2"/>
      <text x="40" y="290" font-size="20">🔒</text>
      <text x="75" y="295" class="box-title" fill="#1e3a8a">Cryptographic Operations</text>
      <text x="480" y="330" class="small-text">• UUIDv7 Generation</text>
      <text x="840" y="330" class="small-text">• RFC 8785 Canonicalization</text>
      <text x="1200" y="330" class="small-text">• Ed25519 Signing (Optional)</text>
    </g>
    
    <!-- Arrow 2 -->
    <line x1="800" y1="1080" x2="800" y2="1140" stroke="#94a3b8" stroke-width="4" marker-end="url(#arrowDown)"/>
    <rect x="720" y="1095" width="160" height="35" rx="18" fill="#f1f5f9"/>
    <text x="800" y="1120" text-anchor="middle" class="small-text">HTTPS / WebSocket</text>
    
    <!-- Layer 3: Transport Layer -->
    <g transform="translate(60, 1160)">
      <!-- Layer Header -->
      <rect x="0" y="0" width="60" height="60" rx="12" fill="#d1fae5"/>
      <text x="30" y="38" text-anchor="middle" font-size="32">⚡</text>
      
      <text x="80" y="40" class="layer-title">③ Transport Layer</text>
      <text x="1390" y="40" text-anchor="end" class="layer-subtitle">Secure Communication</text>
      
      <!-- Transport Boxes -->
      <g transform="translate(0, 80)">
        <rect x="0" y="0" width="350" height="100" rx="12" fill="url(#greenGradient)" stroke="#86efac" stroke-width="3"/>
        <text x="20" y="35" class="box-title" fill="#065f46">HTTPS REST</text>
        <text x="20" y="65" class="small-text">Batch Upload</text>
        
        <rect x="370" y="0" width="350" height="100" rx="12" fill="url(#greenGradient)" stroke="#86efac" stroke-width="3"/>
        <text x="390" y="35" class="box-title" fill="#065f46">WebSocket</text>
        <text x="390" y="65" class="small-text">Real-Time Stream</text>
        
        <rect x="740" y="0" width="350" height="100" rx="12" fill="url(#greenGradient)" stroke="#86efac" stroke-width="3"/>
        <text x="760" y="35" class="box-title" fill="#065f46">Async Queue</text>
        <text x="760" y="65" class="small-text">Retry Logic</text>
        
        <rect x="1110" y="0" width="350" height="100" rx="12" fill="url(#greenGradient)" stroke="#86efac" stroke-width="3"/>
        <text x="1130" y="35" class="box-title" fill="#065f46">Offline Mode</text>
        <text x="1130" y="65" class="small-text">Store &amp; Forward</text>
      </g>
    </g>
    
    <!-- Arrow 3 -->
    <line x1="800" y1="1380" x2="800" y2="1440" stroke="#94a3b8" stroke-width="4" marker-end="url(#arrowDown)"/>
    
    <!-- Layer 4: VeritasChain Cloud -->
    <g transform="translate(60, 1460)">
      <!-- Layer Header -->
      <rect x="0" y="0" width="60" height="60" rx="12" fill="#fed7aa"/>
      <text x="30" y="38" text-anchor="middle" font-size="32">☁️</text>
      
      <text x="80" y="40" class="layer-title">④ VeritasChain Cloud (VCC)</text>
      <text x="1390" y="40" text-anchor="end" class="layer-subtitle">Server-Side Infrastructure</text>
      
      <!-- Main Box -->
      <rect x="0" y="80" width="1480" height="380" rx="16" fill="url(#amberGradient)" stroke="#fcd34d" stroke-width="3"/>
      
      <!-- Component Boxes -->
      <g transform="translate(30, 110)">
        <!-- Left Column -->
        <rect x="0" y="0" width="680" height="90" rx="12" fill="white" stroke="#fcd34d" stroke-width="2"/>
        <text x="20" y="30" font-size="20">💾</text>
        <text x="60" y="35" class="box-title" fill="#78350f">Logging API</text>
        <text x="60" y="65" class="small-text">Event Ingestion &amp; Validation</text>
        
        <rect x="0" y="110" width="680" height="90" rx="12" fill="white" stroke="#fcd34d" stroke-width="2"/>
        <text x="20" y="140" font-size="20">🛡</text>
        <text x="60" y="145" class="box-title" fill="#78350f">Hash Chain Validator</text>
        <text x="60" y="175" class="small-text">Integrity Verification</text>
        
        <rect x="0" y="220" width="680" height="90" rx="12" fill="white" stroke="#fcd34d" stroke-width="2"/>
        <text x="20" y="250" font-size="20">🌲</text>
        <text x="60" y="255" class="box-title" fill="#78350f">Merkle Tree Builder</text>
        <text x="60" y="285" class="small-text">RFC 6962 Implementation</text>
        
        <!-- Right Column -->
        <rect x="720" y="0" width="680" height="90" rx="12" fill="white" stroke="#fcd34d" stroke-width="2"/>
        <text x="740" y="30" font-size="20">📄</text>
        <text x="780" y="35" class="box-title" fill="#78350f">Certificate Generator</text>
        <text x="780" y="65" class="small-text">Event Certificates &amp; Proofs</text>
        
        <rect x="720" y="110" width="680" height="90" rx="12" fill="white" stroke="#fcd34d" stroke-width="2"/>
        <text x="740" y="140" font-size="20">⚓</text>
        <text x="780" y="145" class="box-title" fill="#78350f">Anchor Processor</text>
        <text x="780" y="175" class="small-text">Blockchain Anchoring (Planned)</text>
        
        <rect x="720" y="220" width="680" height="90" rx="12" fill="white" stroke="#fcd34d" stroke-width="2"/>
        <text x="740" y="250" font-size="20">🌐</text>
        <text x="780" y="255" class="box-title" fill="#78350f">Explorer API</text>
        <text x="780" y="285" class="small-text">Query &amp; Verification Interface</text>
      </g>
    </g>
    
    <!-- Arrow 4 (Bidirectional) -->
    <g>
      <line x1="800" y1="1920" x2="800" y2="1980" stroke="#94a3b8" stroke-width="4"/>
      <path d="M 795 1925 L 800 1920 L 805 1925" stroke="#94a3b8" stroke-width="3" fill="none" stroke-linecap="round"/>
      <path d="M 795 1975 L 800 1980 L 805 1975" stroke="#94a3b8" stroke-width="3" fill="none" stroke-linecap="round"/>
    </g>
    
    <!-- Layer 5: Verification Layer -->
    <g transform="translate(60, 2000)">
      <!-- Layer Header -->
      <rect x="0" y="0" width="60" height="60" rx="12" fill="#ccfbf1"/>
      <text x="30" y="38" text-anchor="middle" font-size="32">✅</text>
      
      <text x="80" y="40" class="layer-title">⑤ Verification / Audit Layer</text>
      <text x="1390" y="40" text-anchor="end" class="layer-subtitle">Third-Party Verification</text>
      
      <!-- Verification Boxes -->
      <g transform="translate(0, 80)">
        <rect x="0" y="0" width="350" height="100" rx="12" fill="url(#tealGradient)" stroke="#5eead4" stroke-width="3"/>
        <text x="20" y="35" class="box-title" fill="#134e4a">VCP Explorer</text>
        <text x="20" y="65" class="small-text">Web-Based GUI</text>
        
        <rect x="370" y="0" width="350" height="100" rx="12" fill="url(#tealGradient)" stroke="#5eead4" stroke-width="3"/>
        <text x="390" y="35" class="box-title" fill="#134e4a">Merkle Proof</text>
        <text x="390" y="65" class="small-text">Inclusion Verification</text>
        
        <rect x="740" y="0" width="350" height="100" rx="12" fill="url(#tealGradient)" stroke="#5eead4" stroke-width="3"/>
        <text x="760" y="35" class="box-title" fill="#134e4a">Event Certificates</text>
        <text x="760" y="65" class="small-text">Cryptographic Receipts</text>
        
        <rect x="1110" y="0" width="350" height="100" rx="12" fill="url(#tealGradient)" stroke="#5eead4" stroke-width="3"/>
        <text x="1130" y="35" class="box-title" fill="#134e4a">API Access</text>
        <text x="1130" y="65" class="small-text">Programmatic Verification</text>
      </g>
    </g>
    
    <!-- Arrow 5 -->
    <line x1="800" y1="2220" x2="800" y2="2280" stroke="#94a3b8" stroke-width="4" marker-end="url(#arrowDown)"/>
    
    <!-- Layer 6: Certification & Stakeholders -->
    <g transform="translate(60, 2300)">
      <!-- Layer Header -->
      <rect x="0" y="0" width="60" height="60" rx="12" fill="#fecdd3"/>
      <text x="30" y="38" text-anchor="middle" font-size="32">🛡</text>
      
      <text x="80" y="40" class="layer-title">⑥ Certification &amp; Stakeholders</text>
      <text x="1390" y="40" text-anchor="end" class="layer-subtitle">Governance &amp; Trust</text>
      
      <!-- Two Column Layout -->
      <g transform="translate(0, 80)">
        <!-- Left: VC-Certified -->
        <rect x="0" y="0" width="700" height="340" rx="16" fill="url(#roseGradient)" stroke="#fda4af" stroke-width="3"/>
        
        <text x="40" y="40" font-size="20">🛡</text>
        <text x="80" y="45" class="box-title" fill="#881337">VC-Certified Program</text>
        
        <!-- Tier Badges -->
        <g transform="translate(30, 70)">
          <rect x="0" y="0" width="640" height="45" rx="12" fill="white" stroke="#fda4af" stroke-width="2"/>
          <rect x="10" y="10" width="90" height="25" rx="13" fill="#475569"/>
          <text x="55" y="28" text-anchor="middle" font-size="14" font-weight="700" fill="white">Platinum</text>
          <text x="120" y="28" class="small-text">HFT / Institutional</text>
          
          <rect x="0" y="60" width="640" height="45" rx="12" fill="white" stroke="#fda4af" stroke-width="2"/>
          <rect x="10" y="70" width="70" height="25" rx="13" fill="#f59e0b"/>
          <text x="45" y="88" text-anchor="middle" font-size="14" font-weight="700" fill="white">Gold</text>
          <text x="100" y="88" class="small-text">Professional Trading</text>
          
          <rect x="0" y="120" width="640" height="45" rx="12" fill="white" stroke="#fda4af" stroke-width="2"/>
          <rect x="10" y="130" width="70" height="25" rx="13" fill="#64748b"/>
          <text x="45" y="148" text-anchor="middle" font-size="14" font-weight="700" fill="white">Silver</text>
          <text x="100" y="148" class="small-text">Retail / MT4/5</text>
        </g>
        
        <!-- Conformance Box -->
        <rect x="30" y="260" width="640" height="60" rx="12" fill="white" stroke="#fda4af" stroke-width="2"/>
        <text x="50" y="288" class="box-title" fill="#881337">Conformance Test Suite</text>
        <text x="50" y="308" class="small-text">Automated VCP compliance validation</text>
        
        <!-- Right: Stakeholders -->
        <rect x="740" y="0" width="700" height="340" rx="16" fill="#f1f5f9" stroke="#cbd5e1" stroke-width="3"/>
        
        <text x="780" y="40" font-size="20">🌐</text>
        <text x="820" y="45" class="box-title" fill="#0f172a">Stakeholders</text>
        
        <!-- Stakeholder Items -->
        <g transform="translate(760, 70)">
          <rect x="0" y="0" width="660" height="45" rx="8" fill="white" stroke="#cbd5e1" stroke-width="2"/>
          <text x="15" y="28" font-size="18">✓</text>
          <text x="50" y="20" font-size="15" font-weight="700" fill="#0f172a">Regulators</text>
          <text x="50" y="38" class="small-text">SEC, FINRA, FCA, ESMA</text>
          
          <rect x="0" y="55" width="660" height="45" rx="8" fill="white" stroke="#cbd5e1" stroke-width="2"/>
          <text x="15" y="83" font-size="18">✓</text>
          <text x="50" y="75" font-size="15" font-weight="700" fill="#0f172a">Auditors</text>
          <text x="50" y="93" class="small-text">Forensic Analysis</text>
          
          <rect x="0" y="110" width="660" height="45" rx="8" fill="white" stroke="#cbd5e1" stroke-width="2"/>
          <text x="15" y="138" font-size="18">✓</text>
          <text x="50" y="130" font-size="15" font-weight="700" fill="#0f172a">Exchanges</text>
          <text x="50" y="148" class="small-text">Transparency &amp; Compliance</text>
          
          <rect x="0" y="165" width="660" height="45" rx="8" fill="white" stroke="#cbd5e1" stroke-width="2"/>
          <text x="15" y="193" font-size="18">✓</text>
          <text x="50" y="185" font-size="15" font-weight="700" fill="#0f172a">Prop Firms</text>
          <text x="50" y="203" class="small-text">Trader Verification</text>
          
          <rect x="0" y="220" width="660" height="45" rx="8" fill="white" stroke="#cbd5e1" stroke-width="2"/>
          <text x="15" y="248" font-size="18">✓</text>
          <text x="50" y="240" font-size="15" font-weight="700" fill="#0f172a">Investors</text>
          <text x="50" y="258" class="small-text">Due Diligence</text>
        </g>
      </g>
    </g>
  </g>
  
  <!-- Footer - Key Features -->
  <g transform="translate(160, 2790)">
    <!-- Feature 1 -->
    <rect x="0" y="0" width="370" height="140" rx="16" fill="url(#blueGradient)" stroke="#93c5fd" stroke-width="3"/>
    <text x="20" y="40" font-size="28">🔒</text>
    <text x="20" y="75" class="box-title" fill="#1e3a8a">Tamper-Proof</text>
    <text x="20" y="105" class="small-text">SHA-256 hash chains +</text>
    <text x="20" y="125" class="small-text">Ed25519 signatures</text>
    
    <!-- Feature 2 -->
    <rect x="400" y="0" width="370" height="140" rx="16" fill="url(#greenGradient)" stroke="#86efac" stroke-width="3"/>
    <text x="420" y="40" font-size="28">🛡</text>
    <text x="420" y="75" class="box-title" fill="#065f46">Regulatory Ready</text>
    <text x="420" y="105" class="small-text">EU AI Act, MiFID II,</text>
    <text x="420" y="125" class="small-text">SEC compliance</text>
    
    <!-- Feature 3 -->
    <rect x="800" y="0" width="370" height="140" rx="16" fill="url(#amberGradient)" stroke="#fcd34d" stroke-width="3"/>
    <text x="820" y="40" font-size="28">⚡</text>
    <text x="820" y="75" class="box-title" fill="#78350f">High Performance</text>
    <text x="820" y="105" class="small-text">Nanosecond timestamps,</text>
    <text x="820" y="125" class="small-text">HFT support</text>
    
    <!-- Feature 4 -->
    <rect x="1200" y="0" width="370" height="140" rx="16" fill="url(#purpleGradient)" stroke="#d8b4fe" stroke-width="3"/>
    <text x="1220" y="40" font-size="28">🌐</text>
    <text x="1220" y="75" class="box-title" fill="#581c87">Open Standard</text>
    <text x="1220" y="105" class="small-text">Apache 2.0,</text>
    <text x="1220" y="125" class="small-text">multi-language SDKs</text>
  </g>
  
  <!-- Footer Text -->
  <g transform="translate(160, 2970)">
    <text x="800" y="20" text-anchor="middle" class="footer-text">© 2025 VeritasChain Standards Organization (VSO) | veritaschain.org | github.com/veritaschain</text>
    <text x="800" y="50" text-anchor="middle" class="footer-text">Document ID: VSO-ARCH-001 | Version: 1.0 | Status: Production</text>
  </g>
  
  <!-- Shadow Filter -->
  <defs>
    <filter id="shadow" x="-50%" y="-50%" width="200%" height="200%">
      <feGaussianBlur in="SourceAlpha" stdDeviation="10"/>
      <feOffset dx="0" dy="4" result="offsetblur"/>
      <feComponentTransfer>
        <feFuncA type="linear" slope="0.2"/>
      </feComponentTransfer>
      <feMerge>
        <feMergeNode/>
        <feMergeNode in="SourceGraphic"/>
      </feMerge>
    </filter>
  </defs>
  
</svg>